mtllib materials.mtl
v 0.37 -0.1694167 -0.3766665
v 0.37 -0.1694167 0.3733335
v 0.37 -0.1494167 0.3733335
v 0.37 -0.1494167 -0.3766665
v -0.38 -0.1694167 -0.3766665
v -0.38 -0.1494167 -0.3766665
v -0.38 -0.1494167 0.3733335
v -0.38 -0.1694167 0.3733335
v 0.1875 0.1505833 -0.1791666
v -0.1875 0.1505833 -0.1791666
v -0.2937499 -0.00941658 0.2845833
v 0.004999995 0.4505832 0.01833344
v -0.1875 0.1505833 0.1958334
v 0.1775 0.1505833 0.1958334
v -0.195625 0.07558334 0.2202084
v -0.4 -0.1494167 -0.3966665
v 0.4000001 -0.1494167 -0.3966666
v 0.4000002 -0.1294167 -0.3966669
v -0.4000001 -0.1294167 -0.3966669
v -0.3999999 -0.1494167 0.4033334
v -0.4 -0.1294167 0.4033334
v 0.4000002 -0.1294167 0.4033332
v 0.4000002 -0.1494167 0.4033334
v -0.4299999 -0.1611667 -0.4366663
v 0.4399997 -0.1611667 -0.4366664
v 0.4399998 -0.1394167 -0.4366665
v -0.4300001 -0.1394167 -0.4366666
v -0.4299999 -0.1611665 0.4333334
v -0.43 -0.1394166 0.4333334
v 0.4399999 -0.1394166 0.4333332
v 0.4399998 -0.1611665 0.4333334
vn 1 0 0
vn -1 0 0
vn 0 -1 0
vn -1.357095E-08 0.5498722 -0.8352488
vn 0 0 -1
vn 0 0 1
vn -9.013431E-09 0.5354112 0.8445916
vn 0.854336 0.5197212 -1.04108E-08
vn -0.8416339 0.5400485 -1.025602E-08
vn -0.8416339 0.5400485 -6.153611E-08
vn -1.150581E-08 0.5498721 -0.8352489
vn 0.8607492 0.5085115 0.02295341
vn -0.0843162 0.6616238 0.7450804
vn 3.261379E-08 0.309086 0.9510341
vn -0.9941831 0.1077033 -6.847595E-09
vn -1.218041E-08 0.5092127 0.8606408
vn -0.5959499 0.7913381 0.1364837
vn -0.008898014 0.5049571 0.8630986
vn -0.8563539 0.5160703 -0.01814865
vn 0.8353825 0.5492176 0.0222769
vn -6.332993E-08 -1.164872E-05 -1
vn 2.123415E-07 1.003395E-07 1
vn 1.862644E-09 -1 1.748456E-07
vn 1.061709E-08 1 -2.583398E-08
vn -1 -5.215406E-06 8.614843E-08
vn 1 -4.470351E-06 -9.31314E-08
vn -5.069774E-08 -1.122259E-05 -1
vn 2.048482E-07 -2.195229E-07 1
vn 9.859194E-09 -1 1.748456E-07
vn -7.072394E-09 1 -3.782337E-08
vn -1 -4.795774E-06 6.922022E-08
vn 1 -4.11066E-06 -1.513148E-07
vt 0.249235 0.009997285
vt 0.310265 -0.03359558
vt 0.3114274 -0.03196812
vt 0.2503974 0.01162475
vt -0.249235 0.009997285
vt -0.2503974 0.01162475
vt -0.3114274 -0.03196812
vt -0.310265 -0.03359558
vt 0.1855232 -0.06625827
vt 0.1602979 -0.1368889
vt 0.2309286 -0.1621141
vt 0.2561538 -0.0914835
vt -0.2321741 0.05136654
vt -0.2711858 0.04130623
vt -0.2792865 0.004691629
vt -0.2483754 -0.02186267
vt -0.1368474 0.06842368
vt -0.1386362 0.06931811
vt -0.1721772 0.002236066
vt -0.1703884 0.00134164
vt 0.1368474 0.06842368
vt 0.1703884 0.00134164
vt 0.1721772 0.002236066
vt 0.1386362 0.06931811
vt -0.012547 -0.00769776
vt 0.02667353 -0.07162546
vt 0.0362921 -0.05560546
vt 0.07876779 -0.2239202
vt 0.05995315 -0.2965219
vt 0.1078054 -0.2518477
vt -0.2862965 -0.01045115
vt -0.2159956 0.01567892
vt -0.2469269 0.04220963
vt -0.2469269 0.04220963
vt -0.2778582 0.06874035
vt -0.2820774 0.0291446
vt -0.2711858 0.04130624
vt -0.3101975 0.03124594
vt -0.2792864 0.004691639
vt 0.1151403 -0.2811327
vt 0.1525968 -0.2706621
vt 0.1221485 -0.2442798
vt -0.0204015 -0.05939614
vt -0.01645304 -0.0454539
vt -0.02977988 -0.009721436
vt 0.1057896 -0.003573399
vt 0.1121831 0.001114284
vt 0.09373143 0.03260691
vt -0.2771062 0.04298859
vt -0.3093964 0.02392057
vt -0.3076594 0.01618532
vt 0.05448196 -0.03201424
vt 0.07416056 0.002603352
vt 0.03542477 -0.0008842976
vt -0.201116 0.009971013
vt -0.2382981 -0.006442588
vt -0.2408444 -0.02070766
vt 0.04428962 -0.04744809
vt 0.03528237 0.002295239
vt -0.004497604 0.0005124336
vt -0.2514278 0.0412126
vt -0.2876804 0.006495462
vt -0.2899821 -0.01204797
vt 0.03447616 -0.2974981
vt 0.07395852 -0.2923243
vt 0.08565919 -0.2566824
vt -0.1730696 0.0004467629
vt -0.1372923 0.07200082
vt -0.1390812 0.07289527
vt -0.1748585 0.001341185
vt 0.1730717 0.0004471593
vt 0.1748605 0.001341575
vt 0.1390834 0.07289577
vt 0.1372946 0.07200134
vt 0.1577418 -0.1380997
vt 0.2330812 -0.1650066
vt 0.2599881 -0.08966726
vt 0.1846487 -0.06276037
vt -0.1577418 -0.1380997
vt -0.1846487 -0.06276035
vt -0.259988 -0.08966725
vt -0.2330811 -0.1650066
vt -0.2487702 0.01278636
vt -0.2499327 0.01441384
vt -0.3150312 -0.03208555
vt -0.3138687 -0.03371301
vt 0.2487699 0.01278834
vt 0.3138688 -0.03371044
vt 0.3150312 -0.03208296
vt 0.2499324 0.01441582
vt -0.1733604 -0.002761949
vt -0.1344526 0.07505306
vt -0.136398 0.07602576
vt -0.1753058 -0.001789265
vt 0.1733624 -0.002761568
vt 0.1753078 -0.00178889
vt 0.1364003 0.07602627
vt 0.1344549 0.07505357
vt 0.1529659 -0.1395796
vt 0.2348974 -0.1688409
vt 0.2641586 -0.08690934
vt 0.1822271 -0.05764809
vt -0.1529658 -0.1395796
vt -0.1822271 -0.05764808
vt -0.2641586 -0.08690932
vt -0.2348973 -0.1688409
vt -0.2448324 0.01415526
vt -0.2460965 0.01592514
vt -0.3168911 -0.03464289
vt -0.3156269 -0.03641275
vt 0.244832 0.01415705
vt 0.315627 -0.03641037
vt 0.3168912 -0.03464048
vt 0.2460962 0.01592693
o group155039981
g mesh155039981
usemtl mat19
f 4/4/1 3/3/1 2/2/1 1/1/1
f 8/8/2 7/7/2 6/6/2 5/5/2
f 2/12/3 8/11/3 5/10/3 1/9/3
f 6/16/4 10/15/4 9/14/4 4/13/4
f 5/20/5 6/19/5 4/18/5 1/17/5
f 3/24/6 7/23/6 8/22/6 2/21/6
f 11/27/7 7/26/7 3/25/7
f 9/30/8 3/29/8 4/28/8
f 10/33/9 6/32/9 7/31/9
f 13/36/10 12/35/10 10/34/10
f 10/39/11 12/38/11 9/37/11
f 9/42/12 12/41/12 14/40/12
f 14/45/13 15/44/13 11/43/13
f 14/48/14 13/47/14 15/46/14
f 15/51/15 13/50/15 10/49/15
f 14/54/16 12/53/16 13/52/16
f 11/57/17 15/56/17 10/55/17
f 3/60/18 14/59/18 11/58/18
f 7/63/19 11/62/19 10/61/19
f 9/66/20 14/65/20 3/64/20
o group1729140674
g mesh1729140674
usemtl mat19
f 19/70/21 18/69/21 17/68/21 16/67/21
f 23/74/22 22/73/22 21/72/22 20/71/22
f 17/78/23 23/77/23 20/76/23 16/75/23
f 21/82/24 22/81/24 18/80/24 19/79/24
f 20/86/25 21/85/25 19/84/25 16/83/25
f 18/90/26 22/89/26 23/88/26 17/87/26
o group2045366865
g mesh2045366865
usemtl mat19
f 27/94/27 26/93/27 25/92/27 24/91/27
f 31/98/28 30/97/28 29/96/28 28/95/28
f 25/102/29 31/101/29 28/100/29 24/99/29
f 29/106/30 30/105/30 26/104/30 27/103/30
f 28/110/31 29/109/31 27/108/31 24/107/31
f 26/114/32 30/113/32 31/112/32 25/111/32
